<svg width="24" height="24" viewBox="0 0 24 24" fill="none" xmlns="http://www.w3.org/2000/svg">
<path d="M19.9887 2.00195H6.01096C4.90114 2.00195 4.00128 2.90181 4.00128 4.01163V18.1494V18.9992V19.9691C4.00128 21.0889 4.91114 21.9988 6.04096 21.9988H18.049C19.1289 21.9988 19.9987 21.1289 19.9987 20.0491V18.9992V14.9999V2.01195L19.9887 2.00195ZM15.9994 8.00099H9.00048C8.45057 8.00099 8.00064 7.55106 8.00064 7.00115C8.00064 6.45124 8.45057 6.00131 9.00048 6.00131H15.9994C16.5493 6.00131 16.9992 6.45124 16.9992 7.00115C16.9992 7.55106 16.5493 8.00099 15.9994 8.00099ZM17.8391 19.8391H6.16094V18.9992V18.1494C6.16094 17.8994 6.25092 17.6694 6.4109 17.4995C6.58087 17.2895 6.85083 17.1595 7.15078 17.1595H17.8391V17.4995V18.9992V19.8391Z" fill="#1C304B"/>
</svg>
