<svg width="24" height="24" viewBox="0 0 24 24" fill="none" xmlns="http://www.w3.org/2000/svg">
<path d="M8.75061 7.50074H15.2496C15.6595 7.50074 15.9995 7.16079 15.9995 6.75086C15.9995 6.34092 15.6595 6.00098 15.2496 6.00098H8.75061C8.34068 6.00098 8.00073 6.33092 8.00073 6.75086C8.00073 7.17079 8.34068 7.50074 8.75061 7.50074Z" fill="#5C6573"/>
<path d="M18.2491 2.00195H7.75074C5.68107 2.00195 4.00134 3.68168 4.00134 5.75135V18.3393H4.01134C4.00134 18.3893 4.00134 18.4493 4.00134 18.4993C4.00134 20.429 5.57109 21.9988 7.50078 21.9988H19.2489C19.6688 21.9988 19.9988 21.6588 19.9988 21.2489V18.3393V15.7498V3.75167C19.9988 2.78183 19.2189 2.00195 18.2491 2.00195ZM18.499 18.3393V20.499H7.50078C6.40096 20.499 5.5011 19.5991 5.5011 18.4993C5.5011 17.3995 6.40096 16.4996 7.50078 16.4996H18.499V18.3393ZM5.5011 5.75135C5.5011 4.51155 6.51094 3.50171 7.75074 3.50171H18.2491C18.389 3.50171 18.499 3.6117 18.499 3.75167V14.9999H7.50078C6.7609 14.9999 6.06101 15.2298 5.5011 15.6398V5.75135Z" fill="#5C6573"/>
</svg>
