<svg width="24" height="24" viewBox="0 0 24 24" fill="none" xmlns="http://www.w3.org/2000/svg">
<path d="M15.2496 4.00098H8.75063C5.03122 4.00098 2.00171 7.03049 2.00171 10.7499V19.2485C2.00171 19.6585 2.34165 19.9984 2.75159 19.9984H15.2496C18.969 19.9984 21.9985 16.9689 21.9985 13.2495V10.7499C21.9985 7.03049 18.969 4.00098 15.2496 4.00098ZM20.4987 13.2495C20.4987 16.139 18.1391 18.4987 15.2496 18.4987H3.50147V10.7499C3.50147 7.85036 5.86109 5.50074 8.75063 5.50074H15.2496C18.1391 5.50074 20.4987 7.85036 20.4987 10.7499V13.2495Z" fill="#5C6573"/>
<path d="M8.92061 11.6201C8.90061 11.5601 8.87062 11.5001 8.83062 11.4401C8.79063 11.3901 8.75064 11.3401 8.71064 11.2902C8.3407 10.9202 7.66081 10.9202 7.29087 11.2902C7.1109 11.4801 7.00092 11.7301 7.00092 12C7.00092 12.26 7.1109 12.52 7.29087 12.7099C7.48084 12.8899 7.7408 12.9999 8.00076 12.9999C8.26071 12.9999 8.52067 12.8899 8.71064 12.7099C8.75064 12.6599 8.79063 12.6099 8.83062 12.5499C8.87062 12.5 8.90061 12.44 8.92061 12.38C8.9506 12.32 8.9706 12.26 8.9806 12.2C8.9906 12.13 9.0006 12.06 9.0006 12C9.0006 11.94 8.9906 11.8701 8.9806 11.8001C8.9706 11.7401 8.9506 11.6801 8.92061 11.6201Z" fill="#5C6573"/>
<path d="M12.71 11.29C12.66 11.25 12.61 11.2 12.55 11.17C12.5 11.13 12.44 11.1 12.38 11.08C12.32 11.05 12.26 11.03 12.1901 11.02C12.0001 10.98 11.8001 11 11.6201 11.08C11.4902 11.13 11.3902 11.2 11.2902 11.29C11.2002 11.3899 11.1302 11.4899 11.0802 11.6199C11.0302 11.7399 11.0002 11.8699 11.0002 11.9998C11.0002 12.2598 11.1102 12.5198 11.2902 12.7097C11.3902 12.7997 11.4902 12.8697 11.6201 12.9197C11.7401 12.9697 11.8701 12.9997 12.0001 12.9997C12.0601 12.9997 12.1301 12.9897 12.1901 12.9797C12.26 12.9697 12.32 12.9497 12.38 12.9197C12.44 12.8997 12.5 12.8697 12.55 12.8297C12.61 12.7997 12.66 12.7497 12.71 12.7097C12.8899 12.5198 12.9999 12.2598 12.9999 11.9998C12.9999 11.8699 12.9699 11.7399 12.9199 11.6199C12.8699 11.4899 12.8 11.3899 12.71 11.29Z" fill="#5C6573"/>
<path d="M15.8095 11.02C15.7395 11.03 15.6795 11.05 15.6195 11.08C15.5595 11.1 15.4996 11.13 15.4396 11.17C15.3896 11.21 15.3396 11.25 15.2896 11.29C15.1996 11.3899 15.1296 11.4999 15.0796 11.6199C15.0296 11.7399 14.9996 11.8699 14.9996 11.9998C14.9996 12.2698 15.1096 12.5198 15.2896 12.7097C15.3396 12.7497 15.3896 12.7897 15.4396 12.8297C15.4996 12.8697 15.5595 12.8997 15.6195 12.9197C15.6795 12.9497 15.7395 12.9697 15.8095 12.9797C15.8695 12.9897 15.9395 12.9997 15.9995 12.9997C16.2594 12.9997 16.5194 12.8897 16.7094 12.7097C16.7494 12.6597 16.7893 12.6098 16.8293 12.5598C16.8693 12.4998 16.8993 12.4398 16.9193 12.3798C16.9493 12.3198 16.9693 12.2598 16.9793 12.1998C16.9893 12.1298 16.9993 12.0598 16.9993 11.9998C16.9993 11.7399 16.8893 11.4799 16.7094 11.29C16.4694 11.06 16.1295 10.96 15.8095 11.02Z" fill="#5C6573"/>
</svg>
