<svg width="24" height="24" viewBox="0 0 24 24" fill="none" xmlns="http://www.w3.org/2000/svg">
<path d="M19.9897 9.2048C19.9857 9.13581 19.9717 9.06982 19.9487 9.00483C19.9407 8.98184 19.9347 8.95884 19.9247 8.93684C19.8887 8.85786 19.8427 8.78387 19.7788 8.71988L13.2798 2.22192C13.2168 2.15793 13.1418 2.11194 13.0638 2.07594C13.0418 2.06594 13.0188 2.05994 12.9958 2.05195C12.9309 2.02895 12.8639 2.01495 12.7949 2.01095C12.7789 2.00995 12.7659 2.00195 12.7499 2.00195H5.751C4.78616 2.00195 4.00128 2.78683 4.00128 3.75167V20.249C4.00128 21.2139 4.78616 21.9988 5.751 21.9988H18.249C19.2138 21.9988 19.9987 21.2139 19.9987 20.249V9.25079C19.9987 9.2348 19.9907 9.2208 19.9897 9.2048ZM13.4998 4.56154L17.4381 8.49991H13.4998V4.56154ZM18.249 20.499H5.751C5.61302 20.499 5.50104 20.387 5.50104 20.249V3.75167C5.50104 3.6137 5.61302 3.50171 5.751 3.50171H12V9.24979C12 9.66373 12.3359 9.99967 12.7499 9.99967H18.499V20.249C18.499 20.387 18.387 20.499 18.249 20.499Z" fill="#5C6573"/>
<path d="M13.9697 15.1925L12.7499 16.4123V12.7509C12.7499 12.3369 12.414 12.001 12 12.001C11.5861 12.001 11.2501 12.3369 11.2501 12.7509V16.4123L10.0303 15.1925C9.73739 14.8995 9.26346 14.8995 8.97051 15.1925C8.67756 15.4854 8.67756 15.9603 8.97051 16.2533L11.4701 18.7529C11.6161 18.8989 11.8081 18.9719 12 18.9719C12.192 18.9719 12.384 18.8989 12.5299 18.7529L15.0295 16.2533C15.3225 15.9603 15.3225 15.4854 15.0295 15.1925C14.7366 14.8995 14.2627 14.8995 13.9697 15.1925Z" fill="#5C6573"/>
</svg>
