<svg width="24" height="24" viewBox="0 0 24 24" fill="none" xmlns="http://www.w3.org/2000/svg">
<path d="M20.2488 7.0005H11.4602L10.1704 4.41091C10.0404 4.16095 9.78046 4.00098 9.50051 4.00098H2.75159C2.34165 4.00098 2.00171 4.34092 2.00171 4.75086V18.2487C2.00171 19.2085 2.79158 19.9984 3.75143 19.9984H20.2488C21.2086 19.9984 21.9985 19.2085 21.9985 18.2487V8.75022C21.9985 7.79037 21.2086 7.0005 20.2488 7.0005ZM20.4987 18.2487C20.4987 18.3887 20.3888 18.4987 20.2488 18.4987H3.75143C3.61145 18.4987 3.50147 18.3887 3.50147 18.2487V5.50074H9.04058L10.3304 8.09032C10.4604 8.34028 10.7203 8.50026 11.0003 8.50026H20.2488C20.3888 8.50026 20.4987 8.61024 20.4987 8.75022V18.2487Z" fill="#5C6573"/>
</svg>
