<svg width="24" height="24" viewBox="0 0 24 24" fill="none" xmlns="http://www.w3.org/2000/svg">
<path d="M12.0002 1.99902C7.58829 1.99902 3.9989 5.58832 3.9989 10.0002C3.9989 10.5792 4.0566 11.1146 4.17525 11.6366C4.42408 12.8915 4.99697 14.0856 5.83543 15.094L11.4255 21.7341C11.5683 21.9036 11.7786 22.0015 12.0002 22.0015C12.2218 22.0015 12.4321 21.9036 12.5749 21.7341L18.1679 15.0905C19.0034 14.0856 19.5762 12.8916 19.825 11.6367C19.9437 11.1148 20.0014 10.5794 20.0014 10.0002C20.0014 5.58832 16.4121 1.99902 12.0002 1.99902ZM12.0002 20.0839L8.39705 15.804C8.75556 15.0633 9.513 14.5715 10.3502 14.5715H13.6502C14.4873 14.5715 15.2447 15.0633 15.6033 15.804L12.0002 20.0839ZM18.358 11.3124C18.3563 11.32 18.3546 11.3276 18.3531 11.3353C18.154 12.3484 17.6904 13.3148 17.0155 14.1265L16.6219 14.594C15.9432 13.6595 14.8449 13.0691 13.6502 13.0691H10.3502C9.1554 13.0691 8.05711 13.6595 7.37839 14.594L6.98776 14.13C6.31001 13.3148 5.84637 12.3484 5.64722 11.3353C5.64569 11.3277 5.64405 11.32 5.64232 11.3125C5.54743 10.8983 5.50135 10.4691 5.50135 10.0002C5.50135 6.41675 8.41668 3.50142 12.0002 3.50142C15.5836 3.50142 18.499 6.41675 18.499 10.0002C18.499 10.4692 18.4529 10.8985 18.358 11.3124Z" fill="#5C6573"/>
<path d="M12.0002 4.99902C10.4832 4.99902 9.24902 6.2332 9.24902 7.75019V8.75022C9.24902 10.2672 10.4832 11.5014 12.0002 11.5014H14.0003C14.4152 11.5014 14.7515 11.1651 14.7515 10.7502V7.75019C14.7515 6.2332 13.5172 4.99902 12.0002 4.99902ZM13.2491 9.99904H12.0002C11.3116 9.99904 10.7514 9.43883 10.7514 8.75022V7.75019C10.7514 7.06158 11.3116 6.50138 12.0002 6.50138C12.6888 6.50138 13.2491 7.06158 13.2491 7.75019V9.99904Z" fill="#5C6573"/>
</svg>
