<svg width="24" height="24" viewBox="0 0 24 24" fill="none" xmlns="http://www.w3.org/2000/svg">
<path d="M19.1122 20.9756H16.0022C15.4522 20.9756 15.0022 20.5255 15.0022 19.9756C15.0022 19.4256 15.4522 18.9756 16.0022 18.9756H19.0022V15.9756C19.0022 15.4256 19.4522 14.9756 20.0022 14.9756C20.5522 14.9756 21.0022 15.4256 21.0022 15.9756V19.0856C21.0022 20.1256 20.1522 20.9756 19.1122 20.9756ZM4.00218 8.97559C3.4522 8.97559 3.0022 8.52554 3.0022 7.97555V4.86559C3.0022 3.82557 3.85218 2.97559 4.8922 2.97559H8.00217C8.55215 2.97559 9.0022 3.42559 9.0022 3.97557C9.0022 4.52555 8.55215 4.97555 8.00217 4.97555H5.00217V7.97555C5.00217 8.52554 4.55217 8.97559 4.00218 8.97559ZM8.00217 20.9756H4.8922C3.85218 20.9756 3.0022 20.1256 3.0022 19.0856V15.9756C3.0022 15.4256 3.4522 14.9756 4.00218 14.9756C4.55217 14.9756 5.00217 15.4256 5.00217 15.9756V18.9756H8.00217C8.55215 18.9756 9.0022 19.4256 9.0022 19.9756C9.0022 20.5255 8.55215 20.9756 8.00217 20.9756ZM20.0022 8.97559C19.4522 8.97559 19.0022 8.52554 19.0022 7.97555V4.97555H16.0022C15.4522 4.97555 15.0022 4.52555 15.0022 3.97557C15.0022 3.42559 15.4522 2.97559 16.0022 2.97559H19.1122C20.1522 2.97559 21.0022 3.82557 21.0022 4.86559V7.97555C21.0022 8.52554 20.5522 8.97559 20.0022 8.97559ZM6.0022 9.65555L11.2522 12.6656V18.1556C11.2122 18.1356 11.1722 18.1156 11.1322 18.0956L6.88218 15.6656C6.3322 15.3556 6.0022 14.7656 6.0022 14.1456V9.65555ZM17.2522 8.36555L12.0022 11.3656L6.7522 8.36555L11.1321 5.85559C11.6721 5.55559 12.3322 5.55554 12.8622 5.84555L17.2522 8.36555ZM18.0022 9.65555V14.1456C18.0022 14.7656 17.6722 15.3556 17.1322 15.6656L12.8721 18.0956C12.8322 18.1156 12.7921 18.1356 12.7521 18.1556V12.6656L18.0022 9.65555Z" fill="#1C304B"/>
</svg>
