<svg width="24" height="24" viewBox="0 0 24 24" fill="none" xmlns="http://www.w3.org/2000/svg">
<path d="M19.2503 21.0014H15.7503C15.3354 21.0014 14.999 20.6651 14.999 20.2502C14.999 19.8354 15.3354 19.499 15.7503 19.499H19.2503C19.3875 19.499 19.4991 19.3874 19.4991 19.2502V15.7502C19.4991 15.3354 19.8354 14.999 20.2503 14.999C20.6652 14.999 21.0015 15.3354 21.0015 15.7502V19.2502C21.0015 20.2158 20.2159 21.0014 19.2503 21.0014Z" fill="#5C6573"/>
<path d="M3.75016 9.00142C3.33525 9.00142 2.99896 8.66509 2.99896 8.25022V4.75026C2.99896 3.78464 3.78458 2.99902 4.75019 2.99902H8.25016C8.66507 2.99902 9.00136 3.33536 9.00136 3.75022C9.00136 4.16509 8.66507 4.50142 8.25016 4.50142H4.75019C4.61301 4.50142 4.50136 4.61307 4.50136 4.75026V8.25022C4.50136 8.66509 4.16507 9.00142 3.75016 9.00142Z" fill="#5C6573"/>
<path d="M8.25016 21.0014H4.75019C3.78458 21.0014 2.99896 20.2158 2.99896 19.2502V15.7502C2.99896 15.3354 3.33525 14.999 3.75016 14.999C4.16507 14.999 4.50136 15.3354 4.50136 15.7502V19.2502C4.50136 19.3874 4.61301 19.499 4.75019 19.499H8.25016C8.66507 19.499 9.00136 19.8354 9.00136 20.2502C9.00136 20.6651 8.66507 21.0014 8.25016 21.0014Z" fill="#5C6573"/>
<path d="M20.2501 9.00142C19.8352 9.00142 19.4989 8.66509 19.4989 8.25022V4.75026C19.4989 4.61307 19.3873 4.50142 19.2502 4.50142H15.7501C15.3352 4.50142 14.9989 4.16509 14.9989 3.75022C14.9989 3.33536 15.3352 2.99902 15.7501 2.99902H19.2502C20.2158 2.99902 21.0014 3.78464 21.0014 4.75026V8.25022C21.0014 8.66509 20.6651 9.00142 20.2501 9.00142Z" fill="#5C6573"/>
<path d="M12 18.5014C11.8713 18.5014 11.7427 18.4685 11.6272 18.4025L6.37725 15.4024C6.1432 15.2687 5.99872 15.0198 5.99872 14.7502V9.25022C5.99872 8.98242 6.14128 8.73494 6.37288 8.60054C6.60443 8.46609 6.89013 8.46513 7.12264 8.59804L12.3726 11.598C12.6067 11.7318 12.7512 11.9806 12.7512 12.2502V17.7502C12.7512 18.018 12.6086 18.2656 12.377 18.4C12.2605 18.4676 12.1302 18.5014 12 18.5014ZM7.50117 14.3143L11.2487 16.4558V12.6862L7.50117 10.5447V14.3143Z" fill="#5C6573"/>
<path d="M11.9999 18.5015C11.8696 18.5015 11.7395 18.4676 11.6229 18.4C11.3913 18.2656 11.2487 18.018 11.2487 17.7503V12.2502C11.2487 11.9807 11.3932 11.7317 11.6272 11.598L16.8772 8.598C17.1098 8.46509 17.3954 8.46614 17.627 8.60054C17.8586 8.73494 18.0012 8.98243 18.0012 9.25022V14.7502C18.0012 15.0198 17.8567 15.2687 17.6226 15.4024L12.3726 18.4025C12.2572 18.4685 12.1285 18.5015 11.9999 18.5015ZM12.7512 12.6862V16.4558L16.4987 14.3143V10.5447L12.7512 12.6862ZM17.25 14.7502H17.2504H17.25Z" fill="#5C6573"/>
<path d="M6.7506 10.0016C6.48977 10.0016 6.23638 9.86557 6.09771 9.62293C5.89188 9.26274 6.01697 8.80386 6.37721 8.59804L11.6272 5.59799C11.8581 5.46604 12.1417 5.46604 12.3726 5.59799L17.6227 8.59804C17.9828 8.80386 18.108 9.26274 17.9022 9.62293C17.6963 9.98312 17.2374 10.1083 16.8773 9.90248L11.9999 7.11541L7.1226 9.90248C7.00505 9.96964 6.87694 10.0016 6.7506 10.0016Z" fill="#5C6573"/>
</svg>
