<svg width="24" height="24" viewBox="0 0 24 24" fill="none" xmlns="http://www.w3.org/2000/svg">
<path d="M19.2502 6.49909H16.0014V4.75026C16.0014 3.78464 15.2158 2.99902 14.2502 2.99902H9.75021C8.78459 2.99902 7.99903 3.78464 7.99903 4.75026V6.49909H4.75019C3.78458 6.49909 2.99896 7.2847 2.99896 8.25032V19.2504C2.99896 20.216 3.78458 21.0016 4.75019 21.0016H19.2502C20.2158 21.0016 21.0015 20.216 21.0015 19.2504V8.25032C21.0015 7.2847 20.2158 6.49909 19.2502 6.49909ZM9.50143 4.75026C9.50143 4.61307 9.61303 4.50142 9.75021 4.50142H14.2502C14.3874 4.50142 14.499 4.61307 14.499 4.75026V6.49909H9.50143V4.75026ZM4.75019 8.00149H19.2502C19.3874 8.00149 19.499 8.11314 19.499 8.25032V11.9991H4.50136V8.25032C4.50136 8.11314 4.61301 8.00149 4.75019 8.00149ZM19.2502 19.4992H4.75019C4.61301 19.4992 4.50136 19.3876 4.50136 19.2504V13.5015H6.99899V15.2505C6.99899 15.6654 7.33528 16.0017 7.75019 16.0017C8.16511 16.0017 8.50139 15.6654 8.50139 15.2505V13.5015H15.499V15.2505C15.499 15.6654 15.8353 16.0017 16.2502 16.0017C16.6651 16.0017 17.0014 15.6654 17.0014 15.2505V13.5015H19.499V19.2504C19.499 19.3876 19.3874 19.4992 19.2502 19.4992Z" fill="#5C6573"/>
</svg>
