<svg width="24" height="24" viewBox="0 0 24 24" fill="none" xmlns="http://www.w3.org/2000/svg">
<path d="M19.0022 6.99998H16.0022V4.92998C16.0022 3.87 15.1422 3 14.0722 3H9.92217C8.86218 3 8.00221 3.87 8.00221 4.92998V6.99998H5.00221C3.90225 6.99998 3.0022 7.90003 3.0022 9V12H21.0022V9C21.0022 7.90003 20.1021 6.99998 19.0022 6.99998ZM10.0022 5.00002H14.0022V6.99998H10.0022V5.00002Z" fill="#1C304B"/>
<path d="M17.0022 16C17.0022 16.55 16.5522 17 16.0022 17C15.4522 17 15.0022 16.55 15.0022 16V13.5H9.0022V16C9.0022 16.55 8.5522 17 8.00221 17C7.45223 17 7.00218 16.55 7.00218 16V13.5H3.0022V19C3.0022 20.1 3.90225 21 5.00221 21H19.0022C20.1021 21 21.0022 20.1 21.0022 19V13.5H17.0022V16Z" fill="#1C304B"/>
</svg>
