<?xml version="1.0" standalone="no"?>
<svg xmlns="http://www.w3.org/2000/svg" viewBox="0 0 113.904 36" width="113.904" height="36"><g fill="#a2a1a1" color="#ff8866" transform="translate(0 4) scale(0.6666667)"><svg width="42.0" height="42.0" x="0.0" y="0.0" viewBox="0 0 42 42"><path fill="currentColor" fill-rule="nonzero" d="M21 41.41L41.41.59H.59L21 41.41zm0-7.61l-11.5-23h15.4l-1.7 3.4H15l6 12 9.4-18.8H7.8L6.1 4h29.8L21 33.8z"></path></svg></g><path fill="#9b8c8c" fill-rule="nonzero" d="M0 17.42L0 0.91L14.28 0.91L14.28 4.87L5.30 4.87L5.30 7.15L12.98 7.15L12.98 10.94L5.30 10.94L5.30 13.46L14.45 13.46L14.45 17.42L0 17.42ZM25.73 4.46Q27.94 4.46 29.04 5.69Q30.14 6.91 30.14 9.22L30.14 9.22L30.14 17.42L25.37 17.42L25.37 9.79Q25.37 8.98 24.95 8.48Q24.53 7.99 23.76 7.99L23.76 7.99Q22.87 7.99 22.32 8.57Q21.77 9.14 21.77 9.98L21.77 9.98L21.77 17.42L16.99 17.42L16.99 4.75L20.90 4.75L21.22 6.67Q21.96 5.66 23.17 5.06Q24.38 4.46 25.73 4.46L25.73 4.46ZM39.55 4.46Q43.03 4.46 44.87 6.10Q46.70 7.73 46.70 11.09L46.70 11.09L46.70 11.90L37.20 11.90Q37.20 13.27 37.81 13.97Q38.42 14.66 39.74 14.66L39.74 14.66Q40.94 14.66 41.51 14.16Q42.07 13.66 42.07 12.82L42.07 12.82L46.70 12.82Q46.70 15.12 44.95 16.42Q43.20 17.71 39.84 17.71L39.84 17.71Q36.31 17.71 34.37 16.07Q32.42 14.42 32.42 11.09L32.42 11.09Q32.42 7.82 34.32 6.14Q36.22 4.46 39.55 4.46L39.55 4.46ZM39.74 7.51Q37.49 7.51 37.22 9.65L37.22 9.65L41.88 9.65Q41.88 8.66 41.32 8.09Q40.75 7.51 39.74 7.51L39.74 7.51ZM53.78 9.60L57.84 4.75L63.41 4.75L58.73 9.86L63.53 17.42L58.10 17.42L55.44 13.08L53.78 14.69L53.78 17.42L49.01 17.42L49.01 0L53.78 0L53.78 9.60ZM70.75 4.46Q74.09 4.46 76.00 6.16Q77.90 7.85 77.90 11.09L77.90 11.09Q77.90 14.33 76.00 16.02Q74.09 17.71 70.75 17.71L70.75 17.71Q67.42 17.71 65.52 16.03Q63.62 14.35 63.62 11.09L63.62 11.09Q63.62 7.82 65.52 6.14Q67.42 4.46 70.75 4.46L70.75 4.46ZM70.75 7.70Q68.40 7.70 68.40 10.42L68.40 10.42L68.40 11.78Q68.40 14.47 70.75 14.47L70.75 14.47Q73.13 14.47 73.13 11.78L73.13 11.78L73.13 10.42Q73.13 7.70 70.75 7.70L70.75 7.70Z" transform="translate(36, 9.288)"></path></svg>